<svg xmlns="http://www.w3.org/2000/svg" width="1280" height="640" viewBox="0 0 1280 640" font-family="'DM Sans', sans-serif">
  <defs>
    <linearGradient id="bgA" x1="0" y1="0" x2="1" y2="1">
      <stop offset="0" stop-color="#0e0a1a"/>
      <stop offset="1" stop-color="#1a1030"/>
    </linearGradient>
    <linearGradient id="accentA" x1="0" y1="0" x2="1" y2="0">
      <stop offset="0" stop-color="#7B5CE5"/>
      <stop offset="1" stop-color="#a68cff"/>
    </linearGradient>
  </defs>

  <rect width="1280" height="640" fill="url(#bgA)"/>

  <!-- faint mono grid ticks, top-right, as texture -->
  <g fill="#7B5CE5" opacity="0.14" font-family="'DM Mono', monospace" font-size="13">
    <text x="1120" y="70">SEP-1</text>
    <text x="1120" y="94">STK</text>
    <text x="1120" y="118">HBIPS</text>
    <text x="1120" y="142">ED-OP</text>
    <text x="1120" y="166">PC-06</text>
  </g>

  <!-- accent hairline -->
  <rect x="120" y="250" width="64" height="4" rx="2" fill="url(#accentA)"/>

  <!-- eyebrow -->
  <text x="120" y="228" font-family="'DM Mono', monospace" font-size="16" letter-spacing="3" fill="#a68cff">CLINICAL QUALITY · CORE MEASURES</text>

  <!-- wordmark -->
  <g fill="#ffffff"><path transform="translate(118.00,360.00) scale(0.10400,-0.10400)" d="M234.13818359375 0V591.1396484375H29.82763671875V700H572.8603515625V591.1396484375H368.5498046875V0Z"/><path transform="translate(178.71,360.00) scale(0.10400,-0.10400)" d="M236.758544921875 -12Q176.17236328125 -12 135.8792724609375 9.6207275390625Q95.586181640625 31.241455078125 75.8792724609375 67.8621826171875Q56.17236328125 104.48291015625 56.17236328125 147.48291015625Q56.17236328125 194.79345703125 79.741455078125 230.707275390625Q103.310546875 266.62109375 150.724365234375 286.79345703125Q198.13818359375 306.9658203125 268.586181640625 306.9658203125H390.207275390625Q390.207275390625 348.5869140625 382.896728515625 375.2596435546875Q375.586181640625 401.932373046875 355.3272705078125 415.1221923828125Q335.068359375 428.31201171875 295.93017578125 428.31201171875Q259.722900390625 428.31201171875 236.8087158203125 413.432373046875Q213.89453125 398.552734375 207.653076171875 368.62109375H76.51708984375Q81.930908203125 420.62109375 110.3447265625 458.4658203125Q138.758544921875 496.310546875 186.775634765625 517.1552734375Q234.792724609375 538 296.516357421875 538Q369.27490234375 538 420.550537109375 514.258544921875Q471.826171875 490.51708984375 498.515625 445.3101806640625Q525.205078125 400.103271484375 525.205078125 334.586181640625V0H411.51708984375L396.552001953125 77.690185546875Q385.9658203125 57.862548828125 370.4658203125 41.4141845703125Q354.9658203125 24.9658203125 335.13818359375 13.0174560546875Q315.310546875 1.069091796875 290.569091796875 -5.4654541015625Q265.82763671875 -12 236.758544921875 -12ZM268.688720703125 92.412353515625Q292.309814453125 92.412353515625 312.3963623046875 102.13671875Q332.48291015625 111.861083984375 347.707275390625 129.4476318359375Q362.931640625 147.0341796875 372.4661865234375 170.241455078125Q382.000732421875 193.44873046875 384.931640625 220.2421875V224.38037109375H283.792724609375Q254.378173828125 224.38037109375 235.429443359375 216.1905517578125Q216.480712890625 208.000732421875 207.583984375 193.2418212890625Q198.687255859375 178.48291015625 198.687255859375 159.103271484375Q198.687255859375 137.7236328125 207.4632568359375 122.9647216796875Q216.2392578125 108.205810546875 232.118896484375 100.30908203125Q247.99853515625 92.412353515625 268.688720703125 92.412353515625Z"/><path transform="translate(238.70,360.00) scale(0.10400,-0.10400)" d="M69.241455078125 0V526H188.03271484375L197.308349609375 448.275634765625Q219.135986328125 489.758544921875 260.87744140625 513.8792724609375Q302.618896484375 538 361.963623046875 538Q422.89453125 538 465.89453125 513.6552734375Q508.89453125 489.310546875 531.72216796875 442.8450927734375Q554.5498046875 396.379638671875 554.5498046875 329.13818359375V0H420.13818359375V316.62109375Q420.13818359375 367.86328125 393.258544921875 396.1221923828125Q366.37890625 424.381103515625 317.171630859375 424.381103515625Q286.378173828125 424.381103515625 260.412353515625 410.8636474609375Q234.446533203125 397.34619140625 219.3428955078125 371.311279296875Q204.2392578125 345.2763671875 204.2392578125 307.3447265625V0Z"/><path transform="translate(301.70,360.00) scale(0.10400,-0.10400)" d="M69.241455078125 0V526H188.03271484375L197.308349609375 448.275634765625Q219.135986328125 489.758544921875 260.87744140625 513.8792724609375Q302.618896484375 538 361.963623046875 538Q422.89453125 538 465.89453125 513.6552734375Q508.89453125 489.310546875 531.72216796875 442.8450927734375Q554.5498046875 396.379638671875 554.5498046875 329.13818359375V0H420.13818359375V316.62109375Q420.13818359375 367.86328125 393.258544921875 396.1221923828125Q366.37890625 424.381103515625 317.171630859375 424.381103515625Q286.378173828125 424.381103515625 260.412353515625 410.8636474609375Q234.446533203125 397.34619140625 219.3428955078125 371.311279296875Q204.2392578125 345.2763671875 204.2392578125 307.3447265625V0Z"/><path transform="translate(364.70,360.00) scale(0.10400,-0.10400)" d="M71.9658203125 0V526H206.963623046875V0ZM139.7578125 587.898193359375Q103.0341796875 587.898193359375 79.7930908203125 609.673828125Q56.552001953125 631.449462890625 56.552001953125 664.06982421875Q56.552001953125 697.2763671875 79.7930908203125 718.63818359375Q103.0341796875 740 139.7578125 740Q176.65380859375 740 200.101806640625 718.63818359375Q223.5498046875 697.2763671875 223.5498046875 664.06982421875Q223.5498046875 631.449462890625 200.101806640625 609.673828125Q176.65380859375 587.898193359375 139.7578125 587.898193359375Z"/><path transform="translate(391.71,360.00) scale(0.10400,-0.10400)" d="M225.135986328125 700 122.239990234375 422.621826171875H30L83.6552734375 700Z"/><path transform="translate(416.23,360.00) scale(0.10400,-0.10400)" d="M272.7236328125 -12Q194.689453125 -12 144.3792724609375 10.67236328125Q94.069091796875 33.3447265625 69.1898193359375 72.7239990234375Q44.310546875 112.103271484375 41.069091796875 161.930908203125H175.72216796875Q178.5498046875 142.55126953125 188.946533203125 126.499267578125Q199.34326171875 110.447265625 219.722900390625 100.8436279296875Q240.1025390625 91.239990234375 270.792724609375 91.239990234375Q297.17236328125 91.239990234375 315.896728515625 98.80908203125Q334.62109375 106.378173828125 344.190185546875 120.1025390625Q353.75927734375 133.826904296875 353.75927734375 151.792724609375Q353.75927734375 175.413818359375 341.60400390625 188.9312744140625Q329.44873046875 202.44873046875 306.3450927734375 210.190185546875Q283.241455078125 217.931640625 248.689453125 221.75927734375Q202.3447265625 228.931640625 165.7069091796875 240.2247314453125Q129.069091796875 251.517822265625 103.5174560546875 269.517822265625Q77.9658203125 287.517822265625 64.79345703125 314.8109130859375Q51.62109375 342.10400390625 51.62109375 380.862548828125Q51.62109375 426.207275390625 76.6727294921875 461.8450927734375Q101.724365234375 497.48291015625 148.913818359375 517.741455078125Q196.103271484375 538 262.309814453125 538Q358.447265625 538 411.1712646484375 497.241455078125Q463.895263671875 456.48291015625 474.067626953125 386.241455078125H347.10400390625Q340.931640625 409.173095703125 318.9658203125 421.6734619140625Q297 434.173828125 260.7236328125 434.173828125Q222.61962890625 434.173828125 202.4814453125 420.7425537109375Q182.34326171875 407.311279296875 182.34326171875 383.931640625Q182.34326171875 368.552001953125 191.2054443359375 355.913818359375Q200.067626953125 343.275634765625 222.7919921875 333.9996337890625Q245.516357421875 324.7236328125 286.068359375 318.7236328125Q357.378173828125 308.20654296875 402.1883544921875 292.120361328125Q446.99853515625 276.0341796875 468.49853515625 244.9134521484375Q489.99853515625 213.792724609375 488.99853515625 159.37890625Q488.99853515625 105.620361328125 462.15380859375 67.275634765625Q435.30908203125 28.930908203125 386.8265380859375 8.4654541015625Q338.343994140625 -12 272.7236328125 -12Z"/><path transform="translate(493.46,360.00) scale(0.10400,-0.10400)" d="M74.069091796875 0V700H282.7919921875Q404.205810546875 700 483.11962890625 656.6207275390625Q562.033447265625 613.241455078125 600.533447265625 534.741455078125Q639.033447265625 456.241455078125 639.033447265625 349.758544921875Q639.033447265625 244.103271484375 600.533447265625 165.51708984375Q562.033447265625 86.930908203125 483.11962890625 43.4654541015625Q404.205810546875 0 282.7919921875 0ZM209.06689453125 115.72216796875H275.516357421875Q360.689453125 115.72216796875 409.8450927734375 143.6534423828125Q459.000732421875 171.584716796875 480.0181884765625 224.11962890625Q501.03564453125 276.654541015625 501.03564453125 349.758544921875Q501.03564453125 423.690185546875 480.0181884765625 476.138916015625Q459.000732421875 528.587646484375 409.8450927734375 557.0189208984375Q360.689453125 585.4501953125 275.516357421875 585.4501953125H209.06689453125Z"/><path transform="translate(562.90,360.00) scale(0.10400,-0.10400)" d="M305.999267578125 -12Q230.7236328125 -12 173.4996337890625 22.0Q116.275634765625 56 84.3101806640625 117.1207275390625Q52.3447265625 178.241455078125 52.3447265625 258.310546875Q52.3447265625 340.13818359375 84.01708984375 403.310546875Q115.689453125 466.48291015625 172.8272705078125 502.241455078125Q229.965087890625 538 306.24072265625 538Q383.999267578125 538 438.8094482421875 504.0Q493.61962890625 470 522.8436279296875 410.9483642578125Q552.067626953125 351.896728515625 552.067626953125 276.862548828125Q552.067626953125 266.862548828125 551.7745361328125 255.10400390625Q551.4814453125 243.345458984375 549.895263671875 229.931640625H148.757080078125V312.51708984375H416.72509765625Q415.311279296875 367.828369140625 384.2418212890625 398.36328125Q353.17236328125 428.898193359375 306.58544921875 428.898193359375Q272.7919921875 428.898193359375 245.2054443359375 411.6221923828125Q217.618896484375 394.34619140625 201.480712890625 360.2080078125Q185.342529296875 326.06982421875 185.342529296875 273.690185546875V244.517822265625Q185.342529296875 199.620361328125 199.72216796875 166.843994140625Q214.101806640625 134.067626953125 240.80908203125 116.1708984375Q267.516357421875 98.274169921875 304.826904296875 98.274169921875Q345.586181640625 98.274169921875 367.034912109375 111.8607177734375Q388.483642578125 125.447265625 400.552734375 149.0341796875H538.067626953125Q524.30908203125 103.86181640625 491.878173828125 67.103271484375Q459.447265625 30.3447265625 412.3094482421875 9.17236328125Q365.171630859375 -12 305.999267578125 -12Z"/><path transform="translate(623.41,360.00) scale(0.10400,-0.10400)" d="M272.7236328125 -12Q194.689453125 -12 144.3792724609375 10.67236328125Q94.069091796875 33.3447265625 69.1898193359375 72.7239990234375Q44.310546875 112.103271484375 41.069091796875 161.930908203125H175.72216796875Q178.5498046875 142.55126953125 188.946533203125 126.499267578125Q199.34326171875 110.447265625 219.722900390625 100.8436279296875Q240.1025390625 91.239990234375 270.792724609375 91.239990234375Q297.17236328125 91.239990234375 315.896728515625 98.80908203125Q334.62109375 106.378173828125 344.190185546875 120.1025390625Q353.75927734375 133.826904296875 353.75927734375 151.792724609375Q353.75927734375 175.413818359375 341.60400390625 188.9312744140625Q329.44873046875 202.44873046875 306.3450927734375 210.190185546875Q283.241455078125 217.931640625 248.689453125 221.75927734375Q202.3447265625 228.931640625 165.7069091796875 240.2247314453125Q129.069091796875 251.517822265625 103.5174560546875 269.517822265625Q77.9658203125 287.517822265625 64.79345703125 314.8109130859375Q51.62109375 342.10400390625 51.62109375 380.862548828125Q51.62109375 426.207275390625 76.6727294921875 461.8450927734375Q101.724365234375 497.48291015625 148.913818359375 517.741455078125Q196.103271484375 538 262.309814453125 538Q358.447265625 538 411.1712646484375 497.241455078125Q463.895263671875 456.48291015625 474.067626953125 386.241455078125H347.10400390625Q340.931640625 409.173095703125 318.9658203125 421.6734619140625Q297 434.173828125 260.7236328125 434.173828125Q222.61962890625 434.173828125 202.4814453125 420.7425537109375Q182.34326171875 407.311279296875 182.34326171875 383.931640625Q182.34326171875 368.552001953125 191.2054443359375 355.913818359375Q200.067626953125 343.275634765625 222.7919921875 333.9996337890625Q245.516357421875 324.7236328125 286.068359375 318.7236328125Q357.378173828125 308.20654296875 402.1883544921875 292.120361328125Q446.99853515625 276.0341796875 468.49853515625 244.9134521484375Q489.99853515625 213.792724609375 488.99853515625 159.37890625Q488.99853515625 105.620361328125 462.15380859375 67.275634765625Q435.30908203125 28.930908203125 386.8265380859375 8.4654541015625Q338.343994140625 -12 272.7236328125 -12Z"/><path transform="translate(677.67,360.00) scale(0.10400,-0.10400)" d="M396.4130859375 0 184.37744140625 284 380.654541015625 526H540.51416015625L287.03125 227.621826171875L287.445068359375 334.516357421875L563.789794921875 0ZM69.241455078125 0V720H204.2392578125V0Z"/><path transform="translate(758.85,360.00) scale(0.10400,-0.10400)" d="M234.13818359375 0V591.1396484375H29.82763671875V700H572.8603515625V591.1396484375H368.5498046875V0Z"/><path transform="translate(819.56,360.00) scale(0.10400,-0.10400)" d="M307.02393237964526 -12Q232.20654296875 -12 174.447998046875 22.8792724609375Q116.689453125 57.758544921875 84.51708984375 120.0516357421875Q52.3447265625 182.3447265625 52.3447265625 263.0140402788174Q52.3447265625 344.6552734375 84.7239990234375 406.4483642578125Q117.103271484375 468.241455078125 175.0044710599459 503.1207275390625Q232.90567063551683 538 307.7160700871394 538Q383.55126953125 538 440.809814453125 503.1207275390625Q498.068359375 468.241455078125 530.24072265625 406.4483642578125Q562.4130859375 344.6552734375 562.4130859375 263.0140402788174Q562.4130859375 182.3447265625 530.0338134765625 120.0516357421875Q497.654541015625 57.758544921875 440.2603792757601 22.8792724609375Q382.86621753589526 -12 307.02393237964526 -12ZM306.7847243088942 104.5498046875Q342.413818359375 104.5498046875 368.862548828125 122.3603515625Q395.311279296875 140.1708984375 410.0701904296875 175.5216561376521Q424.8291015625 210.8724138378042 424.8291015625 262.92737572594024Q424.8291015625 315.75927734375 410.5701904296875 351.0872802734375Q396.311279296875 386.415283203125 370.0694580078125 403.9327392578125Q343.82763671875 421.4501953125 307.90223106971155 421.4501953125Q272.7578125 421.4501953125 246.30908203125 403.9327392578125Q219.8603515625 386.415283203125 204.89453125 351.0872802734375Q189.9287109375 315.75927734375 189.9287109375 262.92737572594024Q189.9287109375 210.8724138378042 204.6876220703125 175.5216561376521Q219.446533203125 140.1708984375 245.6883544921875 122.3603515625Q271.93017578125 104.5498046875 306.7847243088942 104.5498046875Z"/><path transform="translate(881.52,360.00) scale(0.10400,-0.10400)" d="M307.02393237964526 -12Q232.20654296875 -12 174.447998046875 22.8792724609375Q116.689453125 57.758544921875 84.51708984375 120.0516357421875Q52.3447265625 182.3447265625 52.3447265625 263.0140402788174Q52.3447265625 344.6552734375 84.7239990234375 406.4483642578125Q117.103271484375 468.241455078125 175.0044710599459 503.1207275390625Q232.90567063551683 538 307.7160700871394 538Q383.55126953125 538 440.809814453125 503.1207275390625Q498.068359375 468.241455078125 530.24072265625 406.4483642578125Q562.4130859375 344.6552734375 562.4130859375 263.0140402788174Q562.4130859375 182.3447265625 530.0338134765625 120.0516357421875Q497.654541015625 57.758544921875 440.2603792757601 22.8792724609375Q382.86621753589526 -12 307.02393237964526 -12ZM306.7847243088942 104.5498046875Q342.413818359375 104.5498046875 368.862548828125 122.3603515625Q395.311279296875 140.1708984375 410.0701904296875 175.5216561376521Q424.8291015625 210.8724138378042 424.8291015625 262.92737572594024Q424.8291015625 315.75927734375 410.5701904296875 351.0872802734375Q396.311279296875 386.415283203125 370.0694580078125 403.9327392578125Q343.82763671875 421.4501953125 307.90223106971155 421.4501953125Q272.7578125 421.4501953125 246.30908203125 403.9327392578125Q219.8603515625 386.415283203125 204.89453125 351.0872802734375Q189.9287109375 315.75927734375 189.9287109375 262.92737572594024Q189.9287109375 210.8724138378042 204.6876220703125 175.5216561376521Q219.446533203125 140.1708984375 245.6883544921875 122.3603515625Q271.93017578125 104.5498046875 306.7847243088942 104.5498046875Z"/><path transform="translate(943.48,360.00) scale(0.10400,-0.10400)" d="M69.241455078125 0V720H204.2392578125V0Z"/><path transform="translate(969.87,360.00) scale(0.10400,-0.10400)" d="M272.7236328125 -12Q194.689453125 -12 144.3792724609375 10.67236328125Q94.069091796875 33.3447265625 69.1898193359375 72.7239990234375Q44.310546875 112.103271484375 41.069091796875 161.930908203125H175.72216796875Q178.5498046875 142.55126953125 188.946533203125 126.499267578125Q199.34326171875 110.447265625 219.722900390625 100.8436279296875Q240.1025390625 91.239990234375 270.792724609375 91.239990234375Q297.17236328125 91.239990234375 315.896728515625 98.80908203125Q334.62109375 106.378173828125 344.190185546875 120.1025390625Q353.75927734375 133.826904296875 353.75927734375 151.792724609375Q353.75927734375 175.413818359375 341.60400390625 188.9312744140625Q329.44873046875 202.44873046875 306.3450927734375 210.190185546875Q283.241455078125 217.931640625 248.689453125 221.75927734375Q202.3447265625 228.931640625 165.7069091796875 240.2247314453125Q129.069091796875 251.517822265625 103.5174560546875 269.517822265625Q77.9658203125 287.517822265625 64.79345703125 314.8109130859375Q51.62109375 342.10400390625 51.62109375 380.862548828125Q51.62109375 426.207275390625 76.6727294921875 461.8450927734375Q101.724365234375 497.48291015625 148.913818359375 517.741455078125Q196.103271484375 538 262.309814453125 538Q358.447265625 538 411.1712646484375 497.241455078125Q463.895263671875 456.48291015625 474.067626953125 386.241455078125H347.10400390625Q340.931640625 409.173095703125 318.9658203125 421.6734619140625Q297 434.173828125 260.7236328125 434.173828125Q222.61962890625 434.173828125 202.4814453125 420.7425537109375Q182.34326171875 407.311279296875 182.34326171875 383.931640625Q182.34326171875 368.552001953125 191.2054443359375 355.913818359375Q200.067626953125 343.275634765625 222.7919921875 333.9996337890625Q245.516357421875 324.7236328125 286.068359375 318.7236328125Q357.378173828125 308.20654296875 402.1883544921875 292.120361328125Q446.99853515625 276.0341796875 468.49853515625 244.9134521484375Q489.99853515625 213.792724609375 488.99853515625 159.37890625Q488.99853515625 105.620361328125 462.15380859375 67.275634765625Q435.30908203125 28.930908203125 386.8265380859375 8.4654541015625Q338.343994140625 -12 272.7236328125 -12Z"/></g>

  <!-- tagline -->
  <g fill="#c9bfe8"><path transform="translate(120.00,422.00) scale(0.03000,-0.03000)" d="M77 0V700H257Q379 700 458.5 657.5Q538 615 576.5 536.5Q615 458 615 348Q615 240 576.5 162.0Q538 84 458.5 42.0Q379 0 257 0ZM161 70H255Q356 70 416.0 103.5Q476 137 502.0 199.5Q528 262 528 348Q528 436 502.0 499.0Q476 562 416.0 596.0Q356 630 255 630H161Z"/><path transform="translate(139.92,422.00) scale(0.03000,-0.03000)" d="M289 -12Q219 -12 165.0 22.0Q111 56 80.5 118.0Q50 180 50 263Q50 346 80.5 408.0Q111 470 165.5 504.0Q220 538 291 538Q367 538 418.0 504.0Q469 470 495.0 413.0Q521 356 521 288Q521 278 521.0 268.0Q521 258 520 244H113V309H439Q437 386 394.5 426.5Q352 467 289 467Q247 467 211.5 446.5Q176 426 154.0 386.0Q132 346 132 286V258Q132 192 154.0 147.5Q176 103 211.5 81.0Q247 59 289 59Q345 59 377.0 80.5Q409 102 424 142H507Q495 98 465.5 63.0Q436 28 391.5 8.0Q347 -12 289 -12Z"/><path transform="translate(156.90,422.00) scale(0.03000,-0.03000)" d="M298 -12Q226 -12 170.0 22.5Q114 57 82.0 119.0Q50 181 50 263Q50 346 82.0 407.5Q114 469 170.0 503.5Q226 538 298 538Q388 538 448.5 490.0Q509 442 526 361H440Q429 411 389.5 438.5Q350 466 297 466Q251 466 214.5 443.0Q178 420 157.0 375.0Q136 330 136 263Q136 213 148.0 174.5Q160 136 181.5 110.5Q203 85 232.5 72.0Q262 59 297 59Q333 59 362.5 71.5Q392 84 412.5 108.0Q433 132 440 165H526Q510 86 448.5 37.0Q387 -12 298 -12Z"/><path transform="translate(174.21,422.00) scale(0.03000,-0.03000)" d="M79 0V526H163V0ZM121 626Q96 626 79.5 642.5Q63 659 63 684Q63 709 79.5 724.5Q96 740 121 740Q145 740 162.0 724.5Q179 709 179 684Q179 659 162.0 642.5Q145 626 121 626Z"/><path transform="translate(181.44,422.00) scale(0.03000,-0.03000)" d="M261 -12Q190 -12 143.5 9.5Q97 31 73.0 69.5Q49 108 44 159H130Q134 132 148.5 109.5Q163 87 191.0 73.0Q219 59 262 59Q296 59 320.0 69.5Q344 80 356.5 99.0Q369 118 369 143Q369 176 354.5 194.5Q340 213 312.5 222.5Q285 232 244 237Q200 243 166.0 254.0Q132 265 108.5 283.0Q85 301 73.0 328.0Q61 355 61 392Q61 435 84.0 468.0Q107 501 149.5 519.5Q192 538 250 538Q335 538 384.5 499.0Q434 460 443 388H360Q355 425 326.0 446.0Q297 467 249 467Q198 467 172.0 448.0Q146 429 146 398Q146 375 157.5 356.5Q169 338 197.0 325.5Q225 313 272 307Q331 300 372.0 284.5Q413 269 434.5 237.0Q456 205 455 150Q455 98 430.5 62.0Q406 26 362.5 7.0Q319 -12 261 -12Z"/><path transform="translate(196.71,422.00) scale(0.03000,-0.03000)" d="M79 0V526H163V0ZM121 626Q96 626 79.5 642.5Q63 659 63 684Q63 709 79.5 724.5Q96 740 121 740Q145 740 162.0 724.5Q179 709 179 684Q179 659 162.0 642.5Q145 626 121 626Z"/><path transform="translate(203.94,422.00) scale(0.03000,-0.03000)" d="M297 -12Q224 -12 168.0 22.0Q112 56 81.0 118.0Q50 180 50 263Q50 347 81.5 408.5Q113 470 169.5 504.0Q226 538 299 538Q373 538 428.5 504.0Q484 470 515.0 408.5Q546 347 546 263Q546 180 514.5 118.0Q483 56 427.0 22.0Q371 -12 297 -12ZM297 60Q343 60 380.0 82.5Q417 105 438.5 150.5Q460 196 460 263Q460 331 439.0 376.0Q418 421 381.5 443.5Q345 466 299 466Q254 466 217.0 443.5Q180 421 158.0 376.0Q136 331 136 263Q136 196 157.5 150.5Q179 105 215.5 82.5Q252 60 297 60Z"/><path transform="translate(221.85,422.00) scale(0.03000,-0.03000)" d="M71 0V526H147L151 443Q174 488 217.5 513.0Q261 538 318 538Q376 538 419.0 516.0Q462 494 486.0 449.0Q510 404 510 335V0H426V326Q426 396 391.5 431.0Q357 466 299 466Q260 466 227.0 447.5Q194 429 174.5 393.0Q155 357 155 305V0Z"/><path transform="translate(239.19,422.00) scale(0.03000,-0.03000)" d="M71 275V346H467V275Z"/><path transform="translate(255.33,422.00) scale(0.03000,-0.03000)" d="M261 -12Q190 -12 143.5 9.5Q97 31 73.0 69.5Q49 108 44 159H130Q134 132 148.5 109.5Q163 87 191.0 73.0Q219 59 262 59Q296 59 320.0 69.5Q344 80 356.5 99.0Q369 118 369 143Q369 176 354.5 194.5Q340 213 312.5 222.5Q285 232 244 237Q200 243 166.0 254.0Q132 265 108.5 283.0Q85 301 73.0 328.0Q61 355 61 392Q61 435 84.0 468.0Q107 501 149.5 519.5Q192 538 250 538Q335 538 384.5 499.0Q434 460 443 388H360Q355 425 326.0 446.0Q297 467 249 467Q198 467 172.0 448.0Q146 429 146 398Q146 375 157.5 356.5Q169 338 197.0 325.5Q225 313 272 307Q331 300 372.0 284.5Q413 269 434.5 237.0Q456 205 455 150Q455 98 430.5 62.0Q406 26 362.5 7.0Q319 -12 261 -12Z"/><path transform="translate(270.60,422.00) scale(0.03000,-0.03000)" d="M260 -12Q202 -12 159.0 10.0Q116 32 92.0 77.5Q68 123 68 191V526H152V200Q152 130 186.5 95.0Q221 60 279 60Q319 60 351.0 78.5Q383 97 402.5 133.0Q422 169 422 221V526H506V0H430L425 84Q404 38 360.5 13.0Q317 -12 260 -12Z"/><path transform="translate(287.91,422.00) scale(0.03000,-0.03000)" d="M71 -220V526H147L154 444Q170 470 194.5 491.0Q219 512 253.5 525.0Q288 538 333 538Q404 538 457.5 502.0Q511 466 541.0 404.0Q571 342 571 262Q571 183 541.0 121.0Q511 59 457.0 23.5Q403 -12 332 -12Q271 -12 225.0 13.0Q179 38 155 83V-220ZM322 61Q369 61 405.5 85.5Q442 110 463.5 155.5Q485 201 485 263Q485 325 463.5 370.5Q442 416 405.5 440.5Q369 465 322 465Q272 465 235.0 440.5Q198 416 178.0 370.5Q158 325 158 263Q158 201 178.0 155.5Q198 110 235.0 85.5Q272 61 322 61Z"/><path transform="translate(306.57,422.00) scale(0.03000,-0.03000)" d="M71 -220V526H147L154 444Q170 470 194.5 491.0Q219 512 253.5 525.0Q288 538 333 538Q404 538 457.5 502.0Q511 466 541.0 404.0Q571 342 571 262Q571 183 541.0 121.0Q511 59 457.0 23.5Q403 -12 332 -12Q271 -12 225.0 13.0Q179 38 155 83V-220ZM322 61Q369 61 405.5 85.5Q442 110 463.5 155.5Q485 201 485 263Q485 325 463.5 370.5Q442 416 405.5 440.5Q369 465 322 465Q272 465 235.0 440.5Q198 416 178.0 370.5Q158 325 158 263Q158 201 178.0 155.5Q198 110 235.0 85.5Q272 61 322 61Z"/><path transform="translate(325.23,422.00) scale(0.03000,-0.03000)" d="M297 -12Q224 -12 168.0 22.0Q112 56 81.0 118.0Q50 180 50 263Q50 347 81.5 408.5Q113 470 169.5 504.0Q226 538 299 538Q373 538 428.5 504.0Q484 470 515.0 408.5Q546 347 546 263Q546 180 514.5 118.0Q483 56 427.0 22.0Q371 -12 297 -12ZM297 60Q343 60 380.0 82.5Q417 105 438.5 150.5Q460 196 460 263Q460 331 439.0 376.0Q418 421 381.5 443.5Q345 466 299 466Q254 466 217.0 443.5Q180 421 158.0 376.0Q136 331 136 263Q136 196 157.5 150.5Q179 105 215.5 82.5Q252 60 297 60Z"/><path transform="translate(343.14,422.00) scale(0.03000,-0.03000)" d="M71 0V526H147L153 430Q171 466 200.0 490.0Q229 514 270.5 526.0Q312 538 364 538V450H312Q282 450 254.0 442.0Q226 434 203.5 416.0Q181 398 168.0 367.0Q155 336 155 289V0Z"/><path transform="translate(354.84,422.00) scale(0.03000,-0.03000)" d="M275 0Q230 0 197.0 14.0Q164 28 146.5 61.5Q129 95 129 152V455H37V526H129L140 657H213V526H362V455H213V152Q213 105 232.0 88.5Q251 72 299 72H360V0Z"/><path transform="translate(375.09,422.00) scale(0.03000,-0.03000)" d="M275 0Q230 0 197.0 14.0Q164 28 146.5 61.5Q129 95 129 152V455H37V526H129L140 657H213V526H362V455H213V152Q213 105 232.0 88.5Q251 72 299 72H360V0Z"/><path transform="translate(387.27,422.00) scale(0.03000,-0.03000)" d="M297 -12Q224 -12 168.0 22.0Q112 56 81.0 118.0Q50 180 50 263Q50 347 81.5 408.5Q113 470 169.5 504.0Q226 538 299 538Q373 538 428.5 504.0Q484 470 515.0 408.5Q546 347 546 263Q546 180 514.5 118.0Q483 56 427.0 22.0Q371 -12 297 -12ZM297 60Q343 60 380.0 82.5Q417 105 438.5 150.5Q460 196 460 263Q460 331 439.0 376.0Q418 421 381.5 443.5Q345 466 299 466Q254 466 217.0 443.5Q180 421 158.0 376.0Q136 331 136 263Q136 196 157.5 150.5Q179 105 215.5 82.5Q252 60 297 60Z"/><path transform="translate(405.18,422.00) scale(0.03000,-0.03000)" d="M297 -12Q224 -12 168.0 22.0Q112 56 81.0 118.0Q50 180 50 263Q50 347 81.5 408.5Q113 470 169.5 504.0Q226 538 299 538Q373 538 428.5 504.0Q484 470 515.0 408.5Q546 347 546 263Q546 180 514.5 118.0Q483 56 427.0 22.0Q371 -12 297 -12ZM297 60Q343 60 380.0 82.5Q417 105 438.5 150.5Q460 196 460 263Q460 331 439.0 376.0Q418 421 381.5 443.5Q345 466 299 466Q254 466 217.0 443.5Q180 421 158.0 376.0Q136 331 136 263Q136 196 157.5 150.5Q179 105 215.5 82.5Q252 60 297 60Z"/><path transform="translate(423.09,422.00) scale(0.03000,-0.03000)" d="M71 0V720H155V0Z"/><path transform="translate(429.87,422.00) scale(0.03000,-0.03000)" d="M261 -12Q190 -12 143.5 9.5Q97 31 73.0 69.5Q49 108 44 159H130Q134 132 148.5 109.5Q163 87 191.0 73.0Q219 59 262 59Q296 59 320.0 69.5Q344 80 356.5 99.0Q369 118 369 143Q369 176 354.5 194.5Q340 213 312.5 222.5Q285 232 244 237Q200 243 166.0 254.0Q132 265 108.5 283.0Q85 301 73.0 328.0Q61 355 61 392Q61 435 84.0 468.0Q107 501 149.5 519.5Q192 538 250 538Q335 538 384.5 499.0Q434 460 443 388H360Q355 425 326.0 446.0Q297 467 249 467Q198 467 172.0 448.0Q146 429 146 398Q146 375 157.5 356.5Q169 338 197.0 325.5Q225 313 272 307Q331 300 372.0 284.5Q413 269 434.5 237.0Q456 205 455 150Q455 98 430.5 62.0Q406 26 362.5 7.0Q319 -12 261 -12Z"/><path transform="translate(453.21,422.00) scale(0.03000,-0.03000)" d="M104 0V582Q104 630 120.0 660.5Q136 691 167.5 705.5Q199 720 245 720H322V648H259Q221 648 204.5 632.5Q188 617 188 579V0ZM22 455V526H328V455Z"/><path transform="translate(464.04,422.00) scale(0.03000,-0.03000)" d="M297 -12Q224 -12 168.0 22.0Q112 56 81.0 118.0Q50 180 50 263Q50 347 81.5 408.5Q113 470 169.5 504.0Q226 538 299 538Q373 538 428.5 504.0Q484 470 515.0 408.5Q546 347 546 263Q546 180 514.5 118.0Q483 56 427.0 22.0Q371 -12 297 -12ZM297 60Q343 60 380.0 82.5Q417 105 438.5 150.5Q460 196 460 263Q460 331 439.0 376.0Q418 421 381.5 443.5Q345 466 299 466Q254 466 217.0 443.5Q180 421 158.0 376.0Q136 331 136 263Q136 196 157.5 150.5Q179 105 215.5 82.5Q252 60 297 60Z"/><path transform="translate(481.95,422.00) scale(0.03000,-0.03000)" d="M71 0V526H147L153 430Q171 466 200.0 490.0Q229 514 270.5 526.0Q312 538 364 538V450H312Q282 450 254.0 442.0Q226 434 203.5 416.0Q181 398 168.0 367.0Q155 336 155 289V0Z"/><path transform="translate(501.72,422.00) scale(0.03000,-0.03000)" d="M71 0V720H155V441Q181 486 226.0 512.0Q271 538 323 538Q384 538 426.5 515.5Q469 493 491.5 447.0Q514 401 514 330V0H431V321Q431 393 397.0 429.5Q363 466 305 466Q264 466 230.0 446.5Q196 427 175.5 389.0Q155 351 155 297V0Z"/><path transform="translate(519.18,422.00) scale(0.03000,-0.03000)" d="M297 -12Q224 -12 168.0 22.0Q112 56 81.0 118.0Q50 180 50 263Q50 347 81.5 408.5Q113 470 169.5 504.0Q226 538 299 538Q373 538 428.5 504.0Q484 470 515.0 408.5Q546 347 546 263Q546 180 514.5 118.0Q483 56 427.0 22.0Q371 -12 297 -12ZM297 60Q343 60 380.0 82.5Q417 105 438.5 150.5Q460 196 460 263Q460 331 439.0 376.0Q418 421 381.5 443.5Q345 466 299 466Q254 466 217.0 443.5Q180 421 158.0 376.0Q136 331 136 263Q136 196 157.5 150.5Q179 105 215.5 82.5Q252 60 297 60Z"/><path transform="translate(537.09,422.00) scale(0.03000,-0.03000)" d="M261 -12Q190 -12 143.5 9.5Q97 31 73.0 69.5Q49 108 44 159H130Q134 132 148.5 109.5Q163 87 191.0 73.0Q219 59 262 59Q296 59 320.0 69.5Q344 80 356.5 99.0Q369 118 369 143Q369 176 354.5 194.5Q340 213 312.5 222.5Q285 232 244 237Q200 243 166.0 254.0Q132 265 108.5 283.0Q85 301 73.0 328.0Q61 355 61 392Q61 435 84.0 468.0Q107 501 149.5 519.5Q192 538 250 538Q335 538 384.5 499.0Q434 460 443 388H360Q355 425 326.0 446.0Q297 467 249 467Q198 467 172.0 448.0Q146 429 146 398Q146 375 157.5 356.5Q169 338 197.0 325.5Q225 313 272 307Q331 300 372.0 284.5Q413 269 434.5 237.0Q456 205 455 150Q455 98 430.5 62.0Q406 26 362.5 7.0Q319 -12 261 -12Z"/><path transform="translate(552.36,422.00) scale(0.03000,-0.03000)" d="M71 -220V526H147L154 444Q170 470 194.5 491.0Q219 512 253.5 525.0Q288 538 333 538Q404 538 457.5 502.0Q511 466 541.0 404.0Q571 342 571 262Q571 183 541.0 121.0Q511 59 457.0 23.5Q403 -12 332 -12Q271 -12 225.0 13.0Q179 38 155 83V-220ZM322 61Q369 61 405.5 85.5Q442 110 463.5 155.5Q485 201 485 263Q485 325 463.5 370.5Q442 416 405.5 440.5Q369 465 322 465Q272 465 235.0 440.5Q198 416 178.0 370.5Q158 325 158 263Q158 201 178.0 155.5Q198 110 235.0 85.5Q272 61 322 61Z"/><path transform="translate(571.02,422.00) scale(0.03000,-0.03000)" d="M79 0V526H163V0ZM121 626Q96 626 79.5 642.5Q63 659 63 684Q63 709 79.5 724.5Q96 740 121 740Q145 740 162.0 724.5Q179 709 179 684Q179 659 162.0 642.5Q145 626 121 626Z"/><path transform="translate(578.25,422.00) scale(0.03000,-0.03000)" d="M275 0Q230 0 197.0 14.0Q164 28 146.5 61.5Q129 95 129 152V455H37V526H129L140 657H213V526H362V455H213V152Q213 105 232.0 88.5Q251 72 299 72H360V0Z"/><path transform="translate(590.43,422.00) scale(0.03000,-0.03000)" d="M235 -12Q175 -12 135.0 10.5Q95 33 75.0 70.5Q55 108 55 151Q55 203 81.5 239.5Q108 276 156.0 295.0Q204 314 268 314H399Q399 365 387.0 399.0Q375 433 348.0 450.0Q321 467 276 467Q231 467 199.0 444.5Q167 422 159 378H73Q79 430 108.0 465.5Q137 501 181.5 519.5Q226 538 276 538Q347 538 393.0 512.5Q439 487 461.0 441.5Q483 396 483 334V0H408L403 90Q393 69 377.5 50.5Q362 32 341.0 18.0Q320 4 293.5 -4.0Q267 -12 235 -12ZM247 59Q280 59 308.0 74.0Q336 89 356.5 114.5Q377 140 388.0 172.0Q399 204 399 239V249H275Q228 249 198.5 237.0Q169 225 156.0 203.5Q143 182 143 155Q143 126 155.0 104.5Q167 83 190.5 71.0Q214 59 247 59Z"/><path transform="translate(606.96,422.00) scale(0.03000,-0.03000)" d="M71 0V720H155V0Z"/><path transform="translate(621.81,422.00) scale(0.03000,-0.03000)" d="M298 -12Q226 -12 170.0 22.5Q114 57 82.0 119.0Q50 181 50 263Q50 346 82.0 407.5Q114 469 170.0 503.5Q226 538 298 538Q388 538 448.5 490.0Q509 442 526 361H440Q429 411 389.5 438.5Q350 466 297 466Q251 466 214.5 443.0Q178 420 157.0 375.0Q136 330 136 263Q136 213 148.0 174.5Q160 136 181.5 110.5Q203 85 232.5 72.0Q262 59 297 59Q333 59 362.5 71.5Q392 84 412.5 108.0Q433 132 440 165H526Q510 86 448.5 37.0Q387 -12 298 -12Z"/><path transform="translate(639.12,422.00) scale(0.03000,-0.03000)" d="M297 -12Q224 -12 168.0 22.0Q112 56 81.0 118.0Q50 180 50 263Q50 347 81.5 408.5Q113 470 169.5 504.0Q226 538 299 538Q373 538 428.5 504.0Q484 470 515.0 408.5Q546 347 546 263Q546 180 514.5 118.0Q483 56 427.0 22.0Q371 -12 297 -12ZM297 60Q343 60 380.0 82.5Q417 105 438.5 150.5Q460 196 460 263Q460 331 439.0 376.0Q418 421 381.5 443.5Q345 466 299 466Q254 466 217.0 443.5Q180 421 158.0 376.0Q136 331 136 263Q136 196 157.5 150.5Q179 105 215.5 82.5Q252 60 297 60Z"/><path transform="translate(657.03,422.00) scale(0.03000,-0.03000)" d="M71 0V526H147L153 430Q171 466 200.0 490.0Q229 514 270.5 526.0Q312 538 364 538V450H312Q282 450 254.0 442.0Q226 434 203.5 416.0Q181 398 168.0 367.0Q155 336 155 289V0Z"/><path transform="translate(668.73,422.00) scale(0.03000,-0.03000)" d="M289 -12Q219 -12 165.0 22.0Q111 56 80.5 118.0Q50 180 50 263Q50 346 80.5 408.0Q111 470 165.5 504.0Q220 538 291 538Q367 538 418.0 504.0Q469 470 495.0 413.0Q521 356 521 288Q521 278 521.0 268.0Q521 258 520 244H113V309H439Q437 386 394.5 426.5Q352 467 289 467Q247 467 211.5 446.5Q176 426 154.0 386.0Q132 346 132 286V258Q132 192 154.0 147.5Q176 103 211.5 81.0Q247 59 289 59Q345 59 377.0 80.5Q409 102 424 142H507Q495 98 465.5 63.0Q436 28 391.5 8.0Q347 -12 289 -12Z"/><path transform="translate(693.78,422.00) scale(0.03000,-0.03000)" d="M71 0V526H147L151 454Q175 493 216.0 515.5Q257 538 302 538Q340 538 370.5 527.5Q401 517 424.0 495.5Q447 474 461 442Q487 489 531.5 513.5Q576 538 625 538Q683 538 724.5 515.5Q766 493 788.5 447.5Q811 402 811 334V0H728V325Q728 396 697.0 431.0Q666 466 613 466Q577 466 547.5 447.0Q518 428 500.5 391.0Q483 354 483 301V0H399V325Q399 396 368.0 431.0Q337 466 285 466Q250 466 220.5 447.0Q191 428 173.0 391.0Q155 354 155 301V0Z"/><path transform="translate(720.15,422.00) scale(0.03000,-0.03000)" d="M289 -12Q219 -12 165.0 22.0Q111 56 80.5 118.0Q50 180 50 263Q50 346 80.5 408.0Q111 470 165.5 504.0Q220 538 291 538Q367 538 418.0 504.0Q469 470 495.0 413.0Q521 356 521 288Q521 278 521.0 268.0Q521 258 520 244H113V309H439Q437 386 394.5 426.5Q352 467 289 467Q247 467 211.5 446.5Q176 426 154.0 386.0Q132 346 132 286V258Q132 192 154.0 147.5Q176 103 211.5 81.0Q247 59 289 59Q345 59 377.0 80.5Q409 102 424 142H507Q495 98 465.5 63.0Q436 28 391.5 8.0Q347 -12 289 -12Z"/><path transform="translate(737.13,422.00) scale(0.03000,-0.03000)" d="M235 -12Q175 -12 135.0 10.5Q95 33 75.0 70.5Q55 108 55 151Q55 203 81.5 239.5Q108 276 156.0 295.0Q204 314 268 314H399Q399 365 387.0 399.0Q375 433 348.0 450.0Q321 467 276 467Q231 467 199.0 444.5Q167 422 159 378H73Q79 430 108.0 465.5Q137 501 181.5 519.5Q226 538 276 538Q347 538 393.0 512.5Q439 487 461.0 441.5Q483 396 483 334V0H408L403 90Q393 69 377.5 50.5Q362 32 341.0 18.0Q320 4 293.5 -4.0Q267 -12 235 -12ZM247 59Q280 59 308.0 74.0Q336 89 356.5 114.5Q377 140 388.0 172.0Q399 204 399 239V249H275Q228 249 198.5 237.0Q169 225 156.0 203.5Q143 182 143 155Q143 126 155.0 104.5Q167 83 190.5 71.0Q214 59 247 59Z"/><path transform="translate(753.66,422.00) scale(0.03000,-0.03000)" d="M261 -12Q190 -12 143.5 9.5Q97 31 73.0 69.5Q49 108 44 159H130Q134 132 148.5 109.5Q163 87 191.0 73.0Q219 59 262 59Q296 59 320.0 69.5Q344 80 356.5 99.0Q369 118 369 143Q369 176 354.5 194.5Q340 213 312.5 222.5Q285 232 244 237Q200 243 166.0 254.0Q132 265 108.5 283.0Q85 301 73.0 328.0Q61 355 61 392Q61 435 84.0 468.0Q107 501 149.5 519.5Q192 538 250 538Q335 538 384.5 499.0Q434 460 443 388H360Q355 425 326.0 446.0Q297 467 249 467Q198 467 172.0 448.0Q146 429 146 398Q146 375 157.5 356.5Q169 338 197.0 325.5Q225 313 272 307Q331 300 372.0 284.5Q413 269 434.5 237.0Q456 205 455 150Q455 98 430.5 62.0Q406 26 362.5 7.0Q319 -12 261 -12Z"/><path transform="translate(768.93,422.00) scale(0.03000,-0.03000)" d="M260 -12Q202 -12 159.0 10.0Q116 32 92.0 77.5Q68 123 68 191V526H152V200Q152 130 186.5 95.0Q221 60 279 60Q319 60 351.0 78.5Q383 97 402.5 133.0Q422 169 422 221V526H506V0H430L425 84Q404 38 360.5 13.0Q317 -12 260 -12Z"/><path transform="translate(786.24,422.00) scale(0.03000,-0.03000)" d="M71 0V526H147L153 430Q171 466 200.0 490.0Q229 514 270.5 526.0Q312 538 364 538V450H312Q282 450 254.0 442.0Q226 434 203.5 416.0Q181 398 168.0 367.0Q155 336 155 289V0Z"/><path transform="translate(797.94,422.00) scale(0.03000,-0.03000)" d="M289 -12Q219 -12 165.0 22.0Q111 56 80.5 118.0Q50 180 50 263Q50 346 80.5 408.0Q111 470 165.5 504.0Q220 538 291 538Q367 538 418.0 504.0Q469 470 495.0 413.0Q521 356 521 288Q521 278 521.0 268.0Q521 258 520 244H113V309H439Q437 386 394.5 426.5Q352 467 289 467Q247 467 211.5 446.5Q176 426 154.0 386.0Q132 346 132 286V258Q132 192 154.0 147.5Q176 103 211.5 81.0Q247 59 289 59Q345 59 377.0 80.5Q409 102 424 142H507Q495 98 465.5 63.0Q436 28 391.5 8.0Q347 -12 289 -12Z"/><path transform="translate(822.99,422.00) scale(0.03000,-0.03000)" d="M235 -12Q175 -12 135.0 10.5Q95 33 75.0 70.5Q55 108 55 151Q55 203 81.5 239.5Q108 276 156.0 295.0Q204 314 268 314H399Q399 365 387.0 399.0Q375 433 348.0 450.0Q321 467 276 467Q231 467 199.0 444.5Q167 422 159 378H73Q79 430 108.0 465.5Q137 501 181.5 519.5Q226 538 276 538Q347 538 393.0 512.5Q439 487 461.0 441.5Q483 396 483 334V0H408L403 90Q393 69 377.5 50.5Q362 32 341.0 18.0Q320 4 293.5 -4.0Q267 -12 235 -12ZM247 59Q280 59 308.0 74.0Q336 89 356.5 114.5Q377 140 388.0 172.0Q399 204 399 239V249H275Q228 249 198.5 237.0Q169 225 156.0 203.5Q143 182 143 155Q143 126 155.0 104.5Q167 83 190.5 71.0Q214 59 247 59Z"/><path transform="translate(839.52,422.00) scale(0.03000,-0.03000)" d="M333 -12Q285 -12 250.5 2.5Q216 17 192.5 39.0Q169 61 154 82L147 0H71V720H155V443Q179 490 226.0 514.0Q273 538 331 538Q403 538 457.0 503.0Q511 468 541.0 406.5Q571 345 571 265Q571 186 541.0 123.0Q511 60 457.5 24.0Q404 -12 333 -12ZM322 61Q369 61 405.5 85.5Q442 110 463.5 155.5Q485 201 485 263Q485 325 463.5 370.5Q442 416 405.5 440.5Q369 465 322 465Q272 465 235.0 440.5Q198 416 178.0 370.5Q158 325 158 263Q158 201 178.0 155.5Q198 110 235.0 85.5Q272 61 322 61Z"/><path transform="translate(858.18,422.00) scale(0.03000,-0.03000)" d="M261 -12Q190 -12 143.5 9.5Q97 31 73.0 69.5Q49 108 44 159H130Q134 132 148.5 109.5Q163 87 191.0 73.0Q219 59 262 59Q296 59 320.0 69.5Q344 80 356.5 99.0Q369 118 369 143Q369 176 354.5 194.5Q340 213 312.5 222.5Q285 232 244 237Q200 243 166.0 254.0Q132 265 108.5 283.0Q85 301 73.0 328.0Q61 355 61 392Q61 435 84.0 468.0Q107 501 149.5 519.5Q192 538 250 538Q335 538 384.5 499.0Q434 460 443 388H360Q355 425 326.0 446.0Q297 467 249 467Q198 467 172.0 448.0Q146 429 146 398Q146 375 157.5 356.5Q169 338 197.0 325.5Q225 313 272 307Q331 300 372.0 284.5Q413 269 434.5 237.0Q456 205 455 150Q455 98 430.5 62.0Q406 26 362.5 7.0Q319 -12 261 -12Z"/><path transform="translate(873.45,422.00) scale(0.03000,-0.03000)" d="M275 0Q230 0 197.0 14.0Q164 28 146.5 61.5Q129 95 129 152V455H37V526H129L140 657H213V526H362V455H213V152Q213 105 232.0 88.5Q251 72 299 72H360V0Z"/><path transform="translate(885.63,422.00) scale(0.03000,-0.03000)" d="M71 0V526H147L153 430Q171 466 200.0 490.0Q229 514 270.5 526.0Q312 538 364 538V450H312Q282 450 254.0 442.0Q226 434 203.5 416.0Q181 398 168.0 367.0Q155 336 155 289V0Z"/><path transform="translate(897.33,422.00) scale(0.03000,-0.03000)" d="M235 -12Q175 -12 135.0 10.5Q95 33 75.0 70.5Q55 108 55 151Q55 203 81.5 239.5Q108 276 156.0 295.0Q204 314 268 314H399Q399 365 387.0 399.0Q375 433 348.0 450.0Q321 467 276 467Q231 467 199.0 444.5Q167 422 159 378H73Q79 430 108.0 465.5Q137 501 181.5 519.5Q226 538 276 538Q347 538 393.0 512.5Q439 487 461.0 441.5Q483 396 483 334V0H408L403 90Q393 69 377.5 50.5Q362 32 341.0 18.0Q320 4 293.5 -4.0Q267 -12 235 -12ZM247 59Q280 59 308.0 74.0Q336 89 356.5 114.5Q377 140 388.0 172.0Q399 204 399 239V249H275Q228 249 198.5 237.0Q169 225 156.0 203.5Q143 182 143 155Q143 126 155.0 104.5Q167 83 190.5 71.0Q214 59 247 59Z"/><path transform="translate(913.86,422.00) scale(0.03000,-0.03000)" d="M298 -12Q226 -12 170.0 22.5Q114 57 82.0 119.0Q50 181 50 263Q50 346 82.0 407.5Q114 469 170.0 503.5Q226 538 298 538Q388 538 448.5 490.0Q509 442 526 361H440Q429 411 389.5 438.5Q350 466 297 466Q251 466 214.5 443.0Q178 420 157.0 375.0Q136 330 136 263Q136 213 148.0 174.5Q160 136 181.5 110.5Q203 85 232.5 72.0Q262 59 297 59Q333 59 362.5 71.5Q392 84 412.5 108.0Q433 132 440 165H526Q510 86 448.5 37.0Q387 -12 298 -12Z"/><path transform="translate(931.17,422.00) scale(0.03000,-0.03000)" d="M275 0Q230 0 197.0 14.0Q164 28 146.5 61.5Q129 95 129 152V455H37V526H129L140 657H213V526H362V455H213V152Q213 105 232.0 88.5Q251 72 299 72H360V0Z"/><path transform="translate(943.35,422.00) scale(0.03000,-0.03000)" d="M297 -12Q224 -12 168.0 22.0Q112 56 81.0 118.0Q50 180 50 263Q50 347 81.5 408.5Q113 470 169.5 504.0Q226 538 299 538Q373 538 428.5 504.0Q484 470 515.0 408.5Q546 347 546 263Q546 180 514.5 118.0Q483 56 427.0 22.0Q371 -12 297 -12ZM297 60Q343 60 380.0 82.5Q417 105 438.5 150.5Q460 196 460 263Q460 331 439.0 376.0Q418 421 381.5 443.5Q345 466 299 466Q254 466 217.0 443.5Q180 421 158.0 376.0Q136 331 136 263Q136 196 157.5 150.5Q179 105 215.5 82.5Q252 60 297 60Z"/><path transform="translate(961.26,422.00) scale(0.03000,-0.03000)" d="M71 0V526H147L153 430Q171 466 200.0 490.0Q229 514 270.5 526.0Q312 538 364 538V450H312Q282 450 254.0 442.0Q226 434 203.5 416.0Q181 398 168.0 367.0Q155 336 155 289V0Z"/><path transform="translate(972.96,422.00) scale(0.03000,-0.03000)" d="M261 -12Q190 -12 143.5 9.5Q97 31 73.0 69.5Q49 108 44 159H130Q134 132 148.5 109.5Q163 87 191.0 73.0Q219 59 262 59Q296 59 320.0 69.5Q344 80 356.5 99.0Q369 118 369 143Q369 176 354.5 194.5Q340 213 312.5 222.5Q285 232 244 237Q200 243 166.0 254.0Q132 265 108.5 283.0Q85 301 73.0 328.0Q61 355 61 392Q61 435 84.0 468.0Q107 501 149.5 519.5Q192 538 250 538Q335 538 384.5 499.0Q434 460 443 388H360Q355 425 326.0 446.0Q297 467 249 467Q198 467 172.0 448.0Q146 429 146 398Q146 375 157.5 356.5Q169 338 197.0 325.5Q225 313 272 307Q331 300 372.0 284.5Q413 269 434.5 237.0Q456 205 455 150Q455 98 430.5 62.0Q406 26 362.5 7.0Q319 -12 261 -12Z"/><path transform="translate(988.23,422.00) scale(0.03000,-0.03000)" d="M104 -5Q80 -5 63.5 11.5Q47 28 47 52Q47 76 63.5 92.5Q80 109 104 109Q130 109 145.5 92.5Q161 76 161 52Q161 28 145.5 11.5Q130 -5 104 -5Z"/></g>

  <!-- footer chip row -->
  <g font-family="'DM Mono', monospace" font-size="15" fill="#8f82b8">
    <text x="120" y="540">vanilla js</text>
    <text x="255" y="540">·</text>
    <text x="278" y="540">no build</text>
    <text x="392" y="540">·</text>
    <text x="415" y="540">lighthouse 100</text>
    <text x="600" y="540">·</text>
    <text x="623" y="540">phi-free by design</text>
  </g>

  <!-- small purple square signature, bottom-left -->
  <rect x="120" y="90" width="26" height="26" rx="6" fill="url(#accentA)"/>
</svg>
